<svg width="16" height="16" viewBox="0 0 16 16" fill="none" xmlns="http://www.w3.org/2000/svg">
<path fill-rule="evenodd" clip-rule="evenodd" d="M8 0C3.5816 0 0 3.28376 0 7.33474C0 11.3857 3.5816 14.6695 8 14.6695C12.4184 14.6695 16 11.3857 16 7.33474C16 3.28376 12.4184 0 8 0ZM5.2 5.50105C5.2 5.16393 5.27242 4.83011 5.41314 4.51865C5.55385 4.20718 5.7601 3.92418 6.0201 3.6858C6.28011 3.44742 6.58878 3.25832 6.92849 3.12931C7.2682 3.0003 7.6323 2.9339 8 2.9339C8.3677 2.9339 8.7318 3.0003 9.07151 3.12931C9.41123 3.25832 9.7199 3.44742 9.9799 3.6858C10.2399 3.92418 10.4461 4.20718 10.5869 4.51865C10.7276 4.83011 10.8 5.16393 10.8 5.50105C10.8 6.18191 10.505 6.83487 9.9799 7.31631C9.4548 7.79775 8.74261 8.06821 8 8.06821C7.25739 8.06821 6.5452 7.79775 6.0201 7.31631C5.495 6.83487 5.2 6.18191 5.2 5.50105ZM13.0064 10.9904C12.4074 11.6808 11.646 12.2384 10.7791 12.6214C9.91228 13.0044 8.96228 13.2031 8 13.2025C7.03772 13.2031 6.08772 13.0044 5.22086 12.6214C4.354 12.2384 3.59265 11.6808 2.9936 10.9904C4.2904 10.1373 6.06 9.53516 8 9.53516C9.94 9.53516 11.7096 10.1373 13.0064 10.9904Z" fill="black"/>
</svg>
