<svg width="16" height="16" viewBox="0 0 16 16" fill="none" xmlns="http://www.w3.org/2000/svg">
<path d="M2.35864 11.3333H7.36664M12.3753 11.3333H14.0446M8.35664 3.33333C8.79867 3.33333 9.22259 3.50893 9.53515 3.82149C9.84771 4.13405 10.0233 4.55797 10.0233 5C10.0233 5.44203 9.84771 5.86595 9.53515 6.17851C9.22259 6.49107 8.79867 6.66667 8.35664 6.66667C7.91462 6.66667 7.49069 6.49107 7.17813 6.17851C6.86557 5.86595 6.68998 5.44203 6.68998 5C6.68998 4.55797 6.86557 4.13405 7.17813 3.82149C7.49069 3.50893 7.91462 3.33333 8.35664 3.33333ZM8.35664 3.33333C8.46798 3 8.95664 2.26667 10.0233 2" stroke="black" stroke-width="1.5" stroke-linecap="round" stroke-linejoin="round"/>
<path d="M6.67999 5.34334C2.71399 6.84267 1.11466 7.53467 1.35733 8.03067C2.67666 8.65401 5.10066 8.49401 7.58066 8.40067C8.26333 8.37534 8.93666 8.71401 9.09133 9.38534C9.20066 9.85934 9.22999 10.2733 9.44533 10.536C9.56866 10.6867 9.77866 10.7373 9.96666 10.6887C10.4733 10.5553 10.6833 9.98934 10.9333 8.99534C10.982 8.80201 11.0513 8.59334 11.2393 8.52867C12.0793 8.23667 14.6653 8.87934 14.6653 7.69534C14.6233 6.46201 14.1747 5.69334 12.7327 4.55001C12.2703 4.18096 11.6851 4.00128 11.0953 4.04734C10.478 4.09667 10.1907 4.17734 10.0073 4.33534" stroke="black" stroke-width="1.5" stroke-linecap="round" stroke-linejoin="round"/>
<path d="M1.34204 7.99533L1.99204 10.8653C2.32537 12.368 2.49204 13.1193 3.04004 13.56C3.58871 14 4.35804 14 5.89671 14H11.6154C12.7634 14 13.3374 14 13.7187 13.6547C14.1 13.3093 14.156 12.738 14.2687 11.5947L14.662 7.756" stroke="black" stroke-width="1.5" stroke-linecap="round" stroke-linejoin="round"/>
</svg>
