<svg width="16" height="16" viewBox="0 0 16 16" fill="none" xmlns="http://www.w3.org/2000/svg">
<path fill-rule="evenodd" clip-rule="evenodd" d="M4.64795 2.51801C4.71848 2.46379 4.77743 2.39601 4.82136 2.31865C4.86528 2.2413 4.89328 2.15593 4.9037 2.06759C4.91412 1.97924 4.90676 1.88971 4.88204 1.80425C4.85733 1.7188 4.81576 1.63916 4.75979 1.57002C4.70382 1.50088 4.63457 1.44364 4.55614 1.40167C4.4777 1.3597 4.39166 1.33386 4.30309 1.32565C4.21451 1.31745 4.12519 1.32706 4.04038 1.35391C3.95557 1.38077 3.877 1.42432 3.80928 1.48201C3.08983 2.06292 2.49909 2.78716 2.07462 3.60868C2.03253 3.68658 2.00639 3.77209 1.99771 3.86021C1.98904 3.94833 1.998 4.03729 2.02409 4.12191C2.05017 4.20652 2.09284 4.2851 2.14963 4.35304C2.20641 4.42098 2.27615 4.47693 2.35479 4.51762C2.43343 4.55832 2.51939 4.58294 2.60765 4.59005C2.69591 4.59715 2.7847 4.58661 2.86884 4.55903C2.95298 4.53145 3.03078 4.48738 3.0977 4.4294C3.16463 4.37142 3.21933 4.30069 3.25862 4.22134C3.59843 3.56326 4.07159 2.98316 4.64795 2.51801ZM12.1906 1.48201C12.1229 1.42432 12.0443 1.38077 11.9595 1.35391C11.8747 1.32706 11.7854 1.31745 11.6968 1.32565C11.6082 1.33386 11.5222 1.3597 11.4438 1.40167C11.3653 1.44364 11.2961 1.50088 11.2401 1.57002C11.1841 1.63916 11.1426 1.7188 11.1179 1.80425C11.0931 1.88971 11.0858 1.97924 11.0962 2.06759C11.1066 2.15593 11.1346 2.2413 11.1785 2.31865C11.2225 2.39601 11.2814 2.46379 11.352 2.51801C11.9307 2.98527 12.4053 3.56842 12.7453 4.23001C12.7854 4.30784 12.8404 4.37701 12.9072 4.43357C12.9741 4.49013 13.0514 4.53298 13.1348 4.55966C13.2182 4.58634 13.306 4.59634 13.3932 4.58908C13.4805 4.58181 13.5655 4.55744 13.6433 4.51734C13.7211 4.47725 13.7903 4.42221 13.8468 4.35538C13.9034 4.28855 13.9463 4.21124 13.9729 4.12785C13.9996 4.04447 14.0096 3.95664 14.0023 3.86939C13.9951 3.78214 13.9707 3.69717 13.9306 3.61934C13.5058 2.79348 12.9132 2.06548 12.1906 1.48201ZM3.33328 6.66668C3.33328 5.429 3.82495 4.24201 4.70012 3.36684C5.57529 2.49168 6.76227 2.00001 7.99995 2.00001C9.23763 2.00001 10.4246 2.49168 11.2998 3.36684C12.175 4.24201 12.6666 5.429 12.6666 6.66668V9.17601L13.8813 11.6053C13.9372 11.7172 13.9636 11.8414 13.958 11.9663C13.9524 12.0912 13.9149 12.2126 13.8492 12.3189C13.7835 12.4252 13.6916 12.513 13.5824 12.5739C13.4732 12.6348 13.3503 12.6667 13.2253 12.6667H2.77462C2.6496 12.6667 2.52666 12.6348 2.41746 12.5739C2.30827 12.513 2.21644 12.4252 2.15071 12.3189C2.08499 12.2126 2.04753 12.0912 2.04192 11.9663C2.0363 11.8414 2.0627 11.7172 2.11862 11.6053L3.33328 9.17601V6.66668ZM5.99995 13.3333H9.99995C9.99995 13.687 9.85948 14.0261 9.60943 14.2762C9.35938 14.5262 9.02024 14.6667 8.66662 14.6667H7.33328C6.97966 14.6667 6.64052 14.5262 6.39048 14.2762C6.14043 14.0261 5.99995 13.687 5.99995 13.3333Z" fill="black"/>
</svg>
