<svg width="321" height="257" viewBox="0 0 321 257" fill="none" xmlns="http://www.w3.org/2000/svg">
<path opacity="0.15" d="M32.2444 232.645C32.2456 235.215 45.7164 237.673 69.6933 239.479C93.6702 241.284 126.189 242.289 160.096 242.272C194.003 242.255 226.521 241.217 250.496 239.388C274.471 237.558 287.94 235.086 287.938 232.516C287.937 229.945 274.466 227.487 250.489 225.681C226.513 223.876 193.994 222.871 160.087 222.888C126.179 222.905 93.6615 223.943 69.6864 225.772C45.7114 227.602 32.2431 230.074 32.2444 232.645Z" fill="black"/>
<path d="M279.056 118.163L32.2989 122.511L38.1396 212.918C38.1953 213.765 38.4638 214.601 38.9298 215.377C39.3957 216.152 40.0499 216.853 40.8549 217.438C41.66 218.023 42.6 218.482 43.6214 218.787C44.6427 219.093 45.7253 219.239 46.8071 219.218L277.541 215.154C278.619 215.141 279.678 214.96 280.655 214.622C281.633 214.285 282.509 213.797 283.235 213.187C283.96 212.577 284.52 211.857 284.882 211.069C285.244 210.281 285.4 209.44 285.343 208.595L279.056 118.163Z" fill="#977359" stroke="#534236" stroke-linecap="round" stroke-linejoin="round"/>
<path d="M34.7194 161.231L281.624 156.866L283.724 189.112L36.8185 193.481L34.7194 161.231Z" fill="#E9D5C7" stroke="#AE9686" stroke-linecap="round" stroke-linejoin="round"/>
<path d="M222.781 141.827L222.78 141.815L223.779 141.761C223.856 142.947 224.231 144.122 224.889 145.22C225.548 146.319 226.479 147.32 227.634 148.162C228.79 149.004 230.145 149.668 231.623 150.112C233.102 150.556 234.671 150.771 236.24 150.743C237.81 150.715 239.345 150.445 240.758 149.951C242.17 149.457 243.429 148.749 244.466 147.874C245.502 146.998 246.294 145.974 246.804 144.862C247.313 143.752 247.534 142.572 247.457 141.387L247.457 141.384L247.26 138.124C247.259 138.123 247.259 138.122 247.259 138.121C247.197 137.192 247.37 136.269 247.765 135.408C248.161 134.546 248.768 133.769 249.545 133.116C250.321 132.463 251.253 131.946 252.283 131.591C253.312 131.235 254.424 131.045 255.553 131.031C256.685 131.009 257.819 131.163 258.89 131.483C259.961 131.803 260.953 132.286 261.807 132.906C262.661 133.527 263.363 134.276 263.867 135.115C264.371 135.954 264.666 136.866 264.727 137.799L264.728 137.813L264.728 137.826L264.798 144.422C265.012 147.759 266.364 151.029 268.734 153.891C271.108 156.757 274.414 159.105 278.315 160.679C279.536 161.141 280.884 161.351 282.225 161.287C283.568 161.223 284.849 160.887 285.944 160.319C287.039 159.751 287.902 158.974 288.464 158.075C289.024 157.179 289.268 156.187 289.183 155.193L289.182 155.182L286.812 118.267C286.52 113.698 283.412 108.541 277.798 103.268C272.197 98.0087 264.169 92.697 254.186 87.8164C234.223 78.0567 206.509 70.0524 174.949 67.6222C170.531 67.327 166.135 67.9967 162.253 69.5508L162.247 69.5529L33.3885 119.475C33.3878 119.475 33.3871 119.475 33.3864 119.476C30.73 120.534 28.5444 122.155 27.0632 124.14C25.5845 126.121 24.8635 128.39 24.9653 130.693C24.9654 130.695 24.9654 130.696 24.9655 130.698L27.9558 176.894C27.9558 176.894 27.9558 176.895 27.9558 176.895C27.9822 177.278 28.1163 177.663 28.3597 178.023C28.6039 178.384 28.9523 178.711 29.3876 178.973C29.8229 179.236 30.3297 179.424 30.8724 179.522C31.4147 179.619 31.9742 179.622 32.5095 179.531C37.8132 178.597 42.4825 176.277 45.7675 172.973C49.046 169.675 50.7518 165.595 50.6416 161.398C50.4357 158.965 51.2999 156.589 53.0597 154.665C54.8195 152.741 57.3668 151.385 60.2623 150.799L60.2727 150.796L60.2728 150.796C62.1062 150.466 64.0201 150.46 65.8781 150.779C67.736 151.098 69.497 151.734 71.0337 152.647C72.5703 153.559 73.8491 154.728 74.7703 156.075C75.692 157.422 76.2325 158.915 76.3414 160.445L76.3418 160.451L76.539 163.712C76.5391 163.713 76.5391 163.713 76.5391 163.713C76.6166 164.898 76.9914 166.073 77.6497 167.171C78.3086 168.27 79.2391 169.271 80.3947 170.113C81.5502 170.955 82.9053 171.619 84.3837 172.063C85.8621 172.507 87.4312 172.722 89.0005 172.694C90.5699 172.666 92.1051 172.396 93.5178 171.902C94.9307 171.407 96.1897 170.7 97.2261 169.824C98.2623 168.949 99.054 167.925 99.5641 166.813C100.074 165.703 100.294 164.522 100.217 163.338L100.217 163.336L99.8193 156.858C99.8193 156.858 99.8193 156.858 99.8193 156.858C99.7552 155.827 100.22 154.855 101.056 154.152C101.888 153.453 103.026 153.066 104.212 153.048C105.398 153.029 106.571 153.378 107.474 154.039C108.377 154.7 108.956 155.637 109.02 156.663L222.781 141.827ZM222.781 141.827L223.451 158.066L223.451 158.066L223.452 158.078C223.568 159.858 223.188 161.628 222.333 163.268C221.478 164.909 220.164 166.385 218.475 167.588C216.785 168.79 214.762 169.688 212.545 170.212C210.33 170.735 207.98 170.871 205.659 170.61C201.744 170.057 198.182 168.447 195.595 166.083C193.008 163.718 191.571 160.764 191.492 157.748L191.492 157.739L191.492 157.729L190.917 148.739L190.917 148.735C190.843 147.708 190.255 146.774 189.345 146.118C188.436 145.463 187.259 145.12 186.072 145.146C184.886 145.172 183.751 145.566 182.925 146.271C182.095 146.98 181.64 147.955 181.714 148.986C181.714 148.986 181.714 148.987 181.714 148.988L181.914 152.197L181.914 152.2C181.966 152.96 181.825 153.717 181.497 154.432C181.169 155.147 180.657 155.808 179.983 156.375C179.308 156.942 178.487 157.401 177.562 157.721C176.637 158.04 175.632 158.213 174.604 158.225L174.601 158.225C173.57 158.245 172.539 158.106 171.568 157.815C170.597 157.525 169.708 157.091 168.952 156.541C168.196 155.991 167.59 155.339 167.162 154.627C166.734 153.915 166.492 153.157 166.442 152.394L222.781 141.827ZM109.6 165.554L109.02 156.665L140.568 149.683L141.572 165.702L141.572 165.703C141.688 167.484 141.308 169.254 140.453 170.894C139.598 172.535 138.284 174.011 136.595 175.213C134.905 176.416 132.882 177.313 130.665 177.837C128.45 178.36 126.099 178.497 123.777 178.236C119.892 177.71 116.345 176.135 113.756 173.806C111.168 171.477 109.712 168.557 109.601 165.568L109.601 165.568L109.6 165.554ZM166.442 152.392L166.242 149.18L166.241 149.178C166.063 146.44 164.506 143.877 161.977 142.034C159.449 140.192 156.135 139.202 152.764 139.262C149.394 139.322 146.207 140.428 143.911 142.367C141.611 144.31 140.389 146.939 140.568 149.682L166.442 152.392Z" fill="#FFD084" stroke="#FF9D00"/>
<path d="M65.0503 121.933L262.649 118.426" stroke="#FF9D00" stroke-linecap="round" stroke-linejoin="round"/>
<ellipse cx="170.534" cy="79.0567" rx="1.79159" ry="5.30979" transform="rotate(62.2667 170.534 79.0567)" fill="black"/>
<ellipse cx="196.534" cy="83.0567" rx="1.79159" ry="5.30979" transform="rotate(62.2667 196.534 83.0567)" fill="black"/>
<ellipse cx="118.534" cy="106.057" rx="1.79159" ry="5.30979" transform="rotate(62.2667 118.534 106.057)" fill="black"/>
<ellipse cx="72.5336" cy="113.057" rx="1.79159" ry="5.30979" transform="rotate(62.2667 72.5336 113.057)" fill="black"/>
<ellipse cx="142.534" cy="88.0567" rx="1.79159" ry="5.30979" transform="rotate(62.2667 142.534 88.0567)" fill="black"/>
<ellipse cx="196.534" cy="105.057" rx="1.79159" ry="5.30979" transform="rotate(62.2667 196.534 105.057)" fill="black"/>
<ellipse cx="230.534" cy="98.0567" rx="1.79159" ry="5.30979" transform="rotate(62.2667 230.534 98.0567)" fill="black"/>
<ellipse cx="247.534" cy="107.057" rx="1.79159" ry="5.30979" transform="rotate(62.2667 247.534 107.057)" fill="black"/>
<ellipse cx="207.534" cy="133.057" rx="1.79159" ry="5.30979" transform="rotate(62.2667 207.534 133.057)" fill="black"/>
<ellipse cx="88.5336" cy="150.057" rx="1.79159" ry="5.30979" transform="rotate(62.2667 88.5336 150.057)" fill="black"/>
<ellipse cx="37.5336" cy="164.057" rx="1.79159" ry="5.30979" transform="rotate(62.2667 37.5336 164.057)" fill="black"/>
<ellipse cx="43.5336" cy="141.057" rx="1.79159" ry="5.30979" transform="rotate(62.2667 43.5336 141.057)" fill="black"/>
<ellipse cx="70.5336" cy="134.057" rx="1.79159" ry="5.30979" transform="rotate(62.2667 70.5336 134.057)" fill="black"/>
<ellipse cx="122.534" cy="134.057" rx="1.79159" ry="5.30979" transform="rotate(62.2667 122.534 134.057)" fill="black"/>
<ellipse cx="280.534" cy="143.057" rx="1.79159" ry="5.30979" transform="rotate(62.2667 280.534 143.057)" fill="black"/>
<ellipse cx="70.5336" cy="134.057" rx="1.79159" ry="5.30979" transform="rotate(62.2667 70.5336 134.057)" fill="black"/>
<ellipse cx="162.534" cy="102.057" rx="1.79159" ry="5.30979" transform="rotate(62.2667 162.534 102.057)" fill="black"/>
</svg>
