<svg width="19" height="11" viewBox="0 0 19 11" fill="none" xmlns="http://www.w3.org/2000/svg">
<path fill-rule="evenodd" clip-rule="evenodd" d="M10.4722 10.5971C10.2144 10.8549 9.86471 10.9997 9.5001 10.9997C9.1355 10.9997 8.78583 10.8549 8.52798 10.5971L0.749606 2.81873C0.618279 2.69189 0.513528 2.54017 0.441466 2.37241C0.369404 2.20466 0.331472 2.02423 0.329886 1.84166C0.328299 1.65909 0.36309 1.47803 0.432226 1.30905C0.501362 1.14006 0.60346 0.986542 0.732563 0.85744C0.861665 0.728337 1.01519 0.626239 1.18417 0.557103C1.35315 0.487967 1.53421 0.453177 1.71678 0.454764C1.89935 0.45635 2.07978 0.494281 2.24754 0.566344C2.41529 0.638406 2.56702 0.743156 2.69386 0.874483L9.5001 7.68073L16.3064 0.874483C16.5657 0.624015 16.913 0.485423 17.2735 0.488556C17.6341 0.491689 17.9789 0.636296 18.2339 0.891232C18.4888 1.14617 18.6334 1.49104 18.6365 1.85156C18.6397 2.21208 18.5011 2.55941 18.2506 2.81873L10.4722 10.5971Z" fill="white"/>
</svg>
